<svg width="200" height="250" viewBox="0 0 200 250" xmlns="http://www.w3.org/2000/svg">
  <!-- Blood drop -->
  <path d="M100 20 C70 80, 30 100, 100 200 C170 100, 130 80, 100 20" fill="#e3342f"/>
  <!-- Heart inside drop -->
  <path d="M85 100 C80 90, 70 90, 70 100 C70 110, 85 120, 100 130 C115 120, 130 110, 130 100 C130 90, 120 90, 115 100 C110 90, 90 90, 85 100 Z" fill="#f56565"/>
  <!-- Red Cross -->
  <rect x="140" y="60" width="20" height="60" fill="#e3342f"/>
  <rect x="120" y="80" width="60" height="20" fill="#e3342f"/>
  <!-- Text -->
  <text x="20" y="220" font-family="Arial, sans-serif" font-size="28" fill="#1a202c" font-weight="bold">BLOOD</text>
  <text x="20" y="250" font-family="Arial, sans-serif" font-size="28" fill="#1a202c" font-weight="bold">BANK</text>
</svg>
